<?xml version="1.0" standalone="no"?>
<!DOCTYPE svg PUBLIC "-//W3C//DTD SVG 20010904//EN"
 "http://www.w3.org/TR/2001/REC-SVG-20010904/DTD/svg10.dtd">
<svg version="1.0" xmlns="http://www.w3.org/2000/svg"
 width="2000.000000pt" height="2000.000000pt" viewBox="0 0 2000.000000 2000.000000"
 preserveAspectRatio="xMidYMid meet">

<g transform="translate(0.000000,2000.000000) scale(0.100000,-0.100000)"
fill="#000000" stroke="none">
<path d="M7378 15844 c-360 -56 -677 -291 -832 -617 -19 -40 -398 -1068 -842
-2284 l-807 -2213 -939 0 -938 0 0 -570 0 -571 1008 4 c976 3 1010 4 1097 24
301 69 547 233 714 477 18 26 54 93 81 149 26 56 407 1086 846 2290 491 1345
801 2182 806 2174 4 -8 788 -2153 1743 -4768 1035 -2835 1756 -4795 1786
-4856 111 -229 282 -398 510 -507 572 -274 1257 -42 1523 517 19 40 398 1068
842 2285 l808 2212 938 0 938 0 0 571 0 570 -1007 -4 c-892 -3 -1017 -6 -1083
-20 -369 -82 -645 -293 -800 -612 -39 -80 -324 -850 -856 -2308 -455 -1246
-801 -2182 -805 -2175 -4 7 -789 2153 -1744 4768 -955 2615 -1754 4793 -1776
4839 -112 236 -284 411 -514 522 -221 107 -454 141 -697 103z"/>
</g>
</svg>
